HIERARCHY
ROOT joint_0
{
	OFFSET 0.000000 0.000000 0.000000
	CHANNELS 6 Xposition Yposition Zposition Zrotation Yrotation Xrotation 
	JOINT joint_1
	{
		OFFSET 1.363060 -1.794630 0.839290
		CHANNELS 3 Zrotation Yrotation Xrotation
		JOINT joint_2
		{
			OFFSET 2.448110 -6.726130 0.000000
			CHANNELS 3 Zrotation Yrotation Xrotation
			JOINT joint_3
			{
				OFFSET 2.562200 -7.039590 0.000000
				CHANNELS 3 Zrotation Yrotation Xrotation
				JOINT joint_4
				{
					OFFSET 0.157640 -0.433110 2.322550
					CHANNELS 3 Zrotation Yrotation Xrotation
					End Site
					{
						OFFSET 0.000000 0.000000 0.000000
					}
				}
			}
		}
	}
	JOINT joint_5
	{
		OFFSET -1.305520 -1.794630 0.839290
		CHANNELS 3 Zrotation Yrotation Xrotation
		JOINT joint_6
		{
			OFFSET -2.542530 -6.985550 0.000000
			CHANNELS 3 Zrotation Yrotation Xrotation
			JOINT joint_7
			{
				OFFSET -2.568260 -7.056230 0.000000
				CHANNELS 3 Zrotation Yrotation Xrotation
				JOINT joint_8
				{
					OFFSET -0.164730 -0.452590 2.363150
					CHANNELS 3 Zrotation Yrotation Xrotation
					End Site
					{
						OFFSET 0.000000 0.000000 0.000000
					}
				}
			}
		}
	}
	JOINT joint_9
	{
		OFFSET 0.028270 2.035590 -0.193380
		CHANNELS 3 Zrotation Yrotation Xrotation
		JOINT joint_10
		{
			OFFSET 0.056720 2.048850 -0.042750
			CHANNELS 3 Zrotation Yrotation Xrotation
			JOINT joint_11
			{
				OFFSET -0.054170 1.746240 0.172020
				CHANNELS 3 Zrotation Yrotation Xrotation
				JOINT joint_12
				{
					OFFSET 0.104070 1.761360 -0.123970
					CHANNELS 3 Zrotation Yrotation Xrotation
					End Site
					{
						OFFSET 0.000000 0.000000 0.000000
					}
				}
			}
			JOINT joint_13
			{
				OFFSET 3.362410 1.200890 -0.311210
				CHANNELS 3 Zrotation Yrotation Xrotation
				JOINT joint_14
				{
					OFFSET 4.983000 -0.000000 -0.000000
					CHANNELS 3 Zrotation Yrotation Xrotation
					JOINT joint_15
					{
						OFFSET 3.483560 -0.000000 -0.000000
						CHANNELS 3 Zrotation Yrotation Xrotation
						JOINT joint_16
						{
							OFFSET 0.000000 0.000000 0.000000
							CHANNELS 3 Zrotation Yrotation Xrotation
							End Site
							{
								OFFSET 0.000000 0.000000 0.000000
							}
						}
					}
				}
			}
			JOINT joint_17
			{
				OFFSET -3.136600 1.374050 -0.404650
				CHANNELS 3 Zrotation Yrotation Xrotation
				JOINT joint_18
				{
					OFFSET -5.241900 -0.000000 -0.000000
					CHANNELS 3 Zrotation Yrotation Xrotation
					JOINT joint_19
					{
						OFFSET -3.444170 -0.000000 -0.000000
						CHANNELS 3 Zrotation Yrotation Xrotation
						JOINT joint_20
						{
							OFFSET 0.000000 0.000000 0.000000
							CHANNELS 3 Zrotation Yrotation Xrotation
							End Site
							{
								OFFSET 0.000000 0.000000 0.000000
							}
						}
					}
				}
			}
		}
	}
}
MOTION
Frames: 18
Frame Time: 0.031667
-9.504039 13.213994 1.398569 -12.802456 78.930977 -3.364663 -1.931405 5.510695 -39.064966 -14.395908 17.260399 30.787809 13.102069 10.397740 -11.692769 0.808299 2.658369 8.763692 2.150905 -17.194455 -22.984498 4.104570 -18.671319 68.726190 -27.314797 -4.144826 -6.156355 -8.745686 -7.443808 25.113096 3.313177 -3.933981 -9.400820 -7.370337 -3.247027 -8.703577 4.504429 5.728737 16.454870 2.710853 -1.454279 -26.431678 -101.484303 -73.960765 44.781524 27.028466 -38.689207 -11.814565 4.647267 2.910147 6.116898 -6.923974 -0.033103 0.085672 86.100675 68.695727 62.602317 -37.309382 33.189228 -27.709051 -13.484855 3.176689 4.810878 6.877613 0.105689 0.031849 
-9.044865 13.234505 1.380784 -15.252708 78.662460 -5.019760 -8.325908 8.524453 -50.549328 -13.597694 21.303379 37.215624 8.132454 10.888758 -1.279297 1.536589 2.874301 9.099437 6.537618 -11.618387 -24.514801 -3.017424 -23.551088 70.384334 -13.483159 0.242162 -14.765559 -8.231583 -6.790042 22.152629 3.191362 -4.880172 -2.983982 -7.821686 -4.343398 -10.821136 8.688434 5.024907 15.622017 3.141391 -1.006794 -25.267300 -88.495442 -71.272867 36.552785 27.007191 -35.924213 -18.210761 6.139357 3.091241 3.660384 -6.954664 -0.035458 0.076896 68.037475 67.964098 32.413797 -41.289904 35.100100 -32.830479 -11.054951 2.411057 3.895538 6.911726 0.095225 0.046147 
-8.582102 13.253814 1.375227 -16.009581 78.725639 -5.274573 -5.847048 4.821638 -54.703419 -16.490250 23.143044 42.845326 -21.094805 6.256452 -5.512963 2.624497 2.764791 8.209501 -1.192754 -8.313901 -17.013267 1.525831 -23.222059 74.148909 -0.658150 -2.942673 -11.665786 -7.091577 -6.500603 19.613747 5.799495 -4.534392 -3.046765 -9.280251 -4.668391 -8.498938 4.042469 2.926315 11.137330 3.723015 -0.917755 -24.762707 -74.052016 -70.729225 27.140211 27.686066 -35.477509 -17.472061 7.144284 1.739419 5.366530 -6.987595 -0.032299 0.039485 67.658727 62.504297 39.568512 -44.095227 35.545097 -34.525957 -8.798335 4.483568 2.545938 6.962516 0.057143 0.049400 
-8.108243 13.300405 1.390545 -14.743326 79.047958 -3.570675 -7.999078 7.121402 -49.503029 -16.559428 25.383946 45.310017 -26.139988 2.918455 2.118398 2.999153 2.778235 7.900200 -1.589580 -7.105337 -18.282608 3.254937 -22.334220 70.122390 4.066936 2.190348 -9.246037 -5.310004 -7.057652 19.327492 0.430385 0.723129 -6.657513 -7.400308 -4.727427 -9.045141 6.177814 4.085782 17.272643 5.470435 -0.400385 -25.151511 -65.817076 -71.723687 20.856007 28.751312 -34.043907 -18.367232 7.543032 3.412825 7.150024 -6.985234 -0.032938 0.022428 60.995399 59.151221 37.905757 -46.084478 36.560350 -31.514513 -9.510544 0.516030 -0.805191 6.977956 0.040594 0.058504 
-7.625435 13.354099 1.398971 -12.545284 79.557106 -1.045868 -3.765945 7.417363 -52.524790 -15.530822 24.021813 48.104175 -20.769413 2.148497 4.490397 3.120763 2.359722 6.301525 -1.950034 -7.953949 -15.737367 5.355123 -23.073265 69.501888 3.505360 -0.537430 -3.148060 -3.436693 -8.873299 22.442419 0.784802 1.130420 -5.370809 -5.164309 -3.589923 -8.662873 3.010866 4.224398 13.903426 6.076838 0.437647 -24.909515 -56.482099 -72.434040 4.103072 28.515700 -36.757882 -15.152216 7.279213 2.917101 5.374090 -6.980921 -0.030056 0.007946 47.579296 59.512866 29.929674 -44.219195 38.586368 -29.432696 -10.886124 -0.190190 -7.398248 6.986256 0.025362 0.043476 
-7.136471 13.432327 1.396847 -12.834898 80.075310 -0.522212 -6.783765 8.043160 -51.596499 -14.038527 23.470762 48.086977 -11.442204 2.386708 8.342309 2.750018 2.666079 6.933029 1.165614 -9.026695 -16.590150 6.176914 -23.224385 68.024552 2.936207 -2.142717 0.598629 -1.257835 -11.875698 28.465648 3.726890 0.044045 -5.621098 -4.840356 -3.710194 -12.440329 3.811386 4.075485 15.783401 6.413544 1.019320 -25.760485 -65.474187 -73.996610 26.740035 25.519979 -39.821581 -9.871812 5.641375 0.046515 -0.388808 -6.939606 -0.039647 0.008084 48.519284 59.543813 30.380275 -40.856587 41.000109 -25.783255 -9.391479 -2.442184 -9.164608 6.951074 0.024335 0.033867 
-6.670526 13.501952 1.377144 -15.472880 80.590347 -2.654320 -5.304762 9.628161 -52.248799 -16.860074 22.804977 49.661117 -20.090887 0.055792 9.673974 2.308083 2.965802 7.812163 0.796824 -9.198428 -18.408866 5.572009 -23.344222 70.546640 2.680535 -5.238085 1.683543 0.491167 -15.427208 36.258766 1.200753 0.184893 -7.836098 -6.641732 -3.684273 -7.077600 6.186451 5.481973 15.054166 7.576630 1.437053 -26.346688 -79.100025 -75.647869 36.461609 20.852682 -39.175622 -8.980047 3.405047 0.864597 -5.630576 -6.915865 -0.049704 0.003720 60.448991 57.029307 41.542006 -39.647435 40.698229 -24.677653 -12.544710 -1.878178 -6.741034 6.927489 0.022791 0.038256 
-6.211817 13.555721 1.369746 -18.887506 81.359276 -5.776923 -6.718255 10.807385 -58.652310 -13.389319 24.701347 50.508733 -17.758154 -0.995933 -0.845593 2.261189 2.535172 6.465261 4.367918 -7.368072 -23.415514 5.596033 -23.138675 69.292938 4.049465 -4.869073 6.817497 1.459818 -20.764279 49.440222 2.776363 -0.078982 -8.581197 -3.727936 -2.296098 -6.938251 2.465659 6.072676 12.911503 9.108256 1.794776 -26.261104 -81.466835 -72.685712 36.222737 18.425388 -38.690402 -8.687096 7.416560 0.222306 -8.680763 -6.886817 -0.053538 0.000286 64.494539 58.786530 50.668618 -40.498480 40.518591 -28.310774 -16.036695 -2.895718 -2.407724 6.902179 0.021111 0.045097 
-5.754084 13.606577 1.388607 -22.488663 82.385277 -9.056768 -10.859753 14.294800 -57.401497 -14.588372 25.433350 49.856365 -11.048645 1.833665 9.404149 2.699144 2.105563 4.995967 7.311023 -6.362369 -23.538235 3.476677 -23.637324 70.535282 1.596220 -6.585925 -1.700982 2.539284 -24.433692 57.798488 1.102199 2.856038 -5.385235 -2.898185 -3.062641 -10.060308 1.622372 7.945078 12.960900 11.242781 1.353489 -25.992594 -78.953271 -72.803041 38.354384 19.206932 -37.500614 -11.806343 5.427604 0.408047 -4.560254 -6.887134 -0.053177 -0.004366 64.705579 56.451192 48.546119 -39.742385 40.439218 -24.908534 -11.233667 -1.571033 0.940697 6.903507 0.016709 0.042376 
-5.301321 13.663393 1.430833 -25.437986 83.286415 -11.655134 -15.126659 13.135360 -62.170315 -14.003545 24.361036 51.276972 -22.110601 1.403511 4.391179 2.934912 2.141262 4.877215 3.145527 -8.108531 -19.900533 7.027934 -21.873556 76.202979 2.898288 -4.468187 3.819127 3.626717 -25.517701 59.263885 2.144908 1.071518 -8.121460 1.465173 -6.090477 -7.529573 1.491386 7.445775 13.741325 13.312063 1.092500 -25.657655 -76.456263 -72.243915 48.268278 17.816998 -34.609863 -9.667295 4.154931 1.951374 -2.873116 -6.895759 -0.050968 -0.010511 77.023989 54.926093 58.334699 -38.031234 37.123010 -26.456869 -11.840334 -3.065988 5.201831 6.907694 0.011002 0.040799 
-4.854264 13.730706 1.477207 -27.362179 84.278252 -13.071217 -15.818959 12.336918 -66.126319 -16.464579 28.310822 53.126226 -17.864426 0.035061 5.870287 3.412818 1.815627 3.691711 5.050649 -1.541792 -24.617856 4.481420 -22.358727 76.671155 1.575141 -3.384087 0.477398 4.044694 -25.955371 59.787521 1.786132 0.378688 -10.890963 0.152448 -4.790671 -0.774023 1.815921 3.819077 11.049330 15.270717 1.019222 -24.058568 -58.771018 -70.255428 28.579504 19.172018 -30.653971 -13.637525 4.993578 3.911946 5.095871 -6.922684 -0.046756 -0.009853 61.849617 55.720933 44.834185 -39.230715 36.484910 -26.899336 -12.871616 -0.964779 10.660791 6.938600 0.008722 0.047184 
-4.434174 13.791907 1.522553 -32.812950 85.215744 -18.129774 -13.255471 7.375253 -61.463424 -13.348585 25.797452 55.732961 -10.694290 2.783498 9.308839 3.882345 1.060004 1.032943 8.668291 -3.412963 -28.198779 4.344098 -25.088630 76.054641 1.414785 -5.137410 1.125710 4.207356 -26.224559 60.091103 -1.013149 2.943017 -8.851430 -3.002654 -4.308185 -9.299694 -0.313031 5.654325 13.540405 16.568608 0.835858 -22.548903 -43.547056 -70.831309 5.879931 21.260232 -30.195665 -12.576219 6.311283 3.799343 6.945373 -6.936778 -0.041090 -0.008332 48.123245 58.274696 36.897553 -41.227135 38.422666 -24.497112 -8.285224 -1.247939 7.507122 6.954232 0.005721 0.046229 
-4.034414 13.848228 1.565736 -39.149872 85.516022 -24.179087 -9.305746 7.932317 -54.552748 -13.401751 24.583483 55.159570 -7.843796 -0.122869 9.842183 3.994980 0.819687 0.141747 7.975896 -7.007007 -27.398998 3.031759 -24.065675 77.154329 3.586405 -2.781389 3.349021 4.340351 -24.866156 56.531355 0.975003 1.549372 -6.466027 0.530160 -8.238403 -7.681906 -2.003648 4.476395 14.256117 19.353064 0.023905 -23.105036 -64.189121 -73.001137 12.921034 22.285804 -29.400279 -14.983743 1.849431 3.447153 5.332286 -6.926412 -0.045943 -0.009862 61.427340 60.275224 48.808323 -39.655289 37.371588 -22.618583 -10.447235 -2.076551 3.770267 6.941099 0.004730 0.049551 
-3.661366 13.910210 1.598949 -50.529392 85.616112 -35.274521 -11.463567 7.342163 -57.512959 -11.012060 23.395090 55.566936 -1.929374 2.709047 -5.282946 4.295339 0.943889 0.356717 9.225337 -3.787015 -25.940502 2.578073 -22.066545 76.794788 4.626386 -2.425624 2.059695 3.846471 -24.665142 56.697212 -0.951304 1.683931 -5.647427 -0.811866 -4.644159 -5.415369 -0.681950 1.450078 12.587940 22.779127 -0.915113 -23.706045 -79.242502 -72.814543 32.043751 25.167765 -30.760491 -19.012344 4.242211 4.030053 2.417232 -6.909723 -0.042747 -0.003333 60.276829 62.422929 45.274933 -37.841833 36.724858 -26.081489 -13.287067 -2.228425 -1.885408 6.922614 0.014167 0.045111 
-3.304685 13.968498 1.626381 -61.906971 85.509636 -46.461094 -9.417310 8.848457 -62.831279 -9.191836 23.400539 54.336911 -5.173862 3.426382 -16.110687 4.557225 1.203053 1.032338 9.320518 -4.728531 -27.792709 -0.576039 -23.531947 79.568268 4.743478 -1.428664 2.164139 3.255956 -23.802654 55.370469 2.384877 1.464702 -4.699054 -0.865897 -6.460839 -8.901277 -1.737025 3.073762 12.512761 25.030876 -1.556065 -23.870890 -97.911288 -74.449410 56.862062 26.057838 -33.478705 -19.762461 4.821492 3.237458 -0.107051 -6.886704 -0.044933 -0.006839 67.010173 65.160688 53.332422 -38.540056 37.865414 -26.044601 -10.565800 -2.735717 -3.338165 6.891553 0.011189 0.042709 
-2.961126 14.028904 1.650556 -71.269341 85.145607 -55.439491 -2.105945 7.772347 -52.065665 -9.859470 21.220619 56.307615 -1.327588 4.787172 -22.140526 4.789041 1.044501 0.764301 7.712743 -6.363896 -28.697795 -1.052963 -23.187555 75.628526 2.226590 0.088078 2.092810 2.942369 -19.555590 44.856595 0.323200 -0.280241 -2.515048 1.104558 -6.448631 -6.569117 -1.287933 2.793789 12.255234 23.102968 -1.852864 -23.493008 -92.298464 -76.120799 46.968264 26.524833 -31.791170 -22.001484 3.788151 1.525013 -3.702911 -6.920246 -0.040970 -0.010615 75.330908 67.108084 57.160726 -40.845453 36.468730 -23.154896 -12.841263 -3.513515 0.360584 6.916017 0.008840 0.029702 
-2.627868 14.081592 1.663784 -76.711693 84.918022 -60.578125 -5.767313 6.507811 -44.611961 -9.969073 23.590558 60.183290 -3.332717 1.928341 -7.990389 5.476850 0.652577 -0.391606 9.893941 -4.945999 -33.127124 0.003330 -22.653499 75.051806 5.730085 -0.129045 -0.395515 2.695052 -15.447813 34.653535 2.127941 -0.009259 -5.837220 2.681748 -4.635123 -6.312252 -3.091733 1.209188 13.514251 22.133016 -2.188735 -22.258898 -67.986371 -75.439446 41.092491 25.318225 -32.312034 -20.215381 5.947902 3.791760 -3.637813 -6.949892 -0.034393 -0.013966 81.341105 65.317837 61.920057 -35.421405 36.956122 -22.198502 -8.853625 -1.204240 -2.605942 6.949357 0.004367 0.025026 
-2.299820 14.128544 1.681141 -83.551491 84.730385 -67.072929 -7.211154 7.890334 -38.610714 -4.319004 22.841414 62.707345 -2.046605 1.054226 9.306083 6.249396 0.193186 -1.859000 8.576188 -5.402101 -36.093684 -5.701612 -22.680138 73.753448 5.504911 1.038224 -1.552570 1.977768 -13.362791 30.530102 1.833881 0.135863 -4.347486 1.064780 -4.374807 -2.960055 -1.966431 2.006957 11.569868 22.876219 -2.518108 -19.898486 -39.464061 -75.493207 16.148968 28.696326 -33.196236 -23.861346 3.485031 2.145817 1.134208 -6.980341 -0.029136 -0.013496 78.221095 65.835285 54.124932 -33.955227 40.703505 -20.430703 -8.896011 -1.684356 -5.801209 6.982899 0.002008 0.016643 
